<?xml version="1.0" encoding="UTF-8" standalone="no"?>
<!-- Generator: Adobe Illustrator 19.0.0, SVG Export Plug-In . SVG Version: 6.00 Build 0)  -->

<svg
   xmlns:dc="http://purl.org/dc/elements/1.1/"
   xmlns:cc="http://creativecommons.org/ns#"
   xmlns:rdf="http://www.w3.org/1999/02/22-rdf-syntax-ns#"
   xmlns:svg="http://www.w3.org/2000/svg"
   xmlns="http://www.w3.org/2000/svg"
   xmlns:sodipodi="http://sodipodi.sourceforge.net/DTD/sodipodi-0.dtd"
   xmlns:inkscape="http://www.inkscape.org/namespaces/inkscape"
   version="1.1"
   id="Capa_1"
   x="0px"
   y="0px"
   viewBox="0 0 128 128"
   xml:space="preserve"
   inkscape:version="0.91 r13725"
   sodipodi:docname="diamant.svg"
   width="128"
   height="128"><sodipodi:namedview
     pagecolor="#ffffff"
     bordercolor="#666666"
     borderopacity="1"
     objecttolerance="10"
     gridtolerance="10"
     guidetolerance="10"
     inkscape:pageopacity="0"
     inkscape:pageshadow="2"
     inkscape:window-width="1161"
     inkscape:window-height="753"
     id="namedview4914"
     showgrid="false"
     inkscape:zoom="10.11377"
     inkscape:cx="64.175001"
     inkscape:cy="81.491261"
     inkscape:window-x="394"
     inkscape:window-y="85"
     inkscape:window-maximized="0"
     inkscape:current-layer="Capa_1"
     showguides="true"
     inkscape:guide-bbox="true"><sodipodi:guide
       position="65.15869,82.264082"
       orientation="0,1"
       id="guide4141" /><sodipodi:guide
       position="63.675564,124.58898"
       orientation="0,1"
       id="guide4145" /><sodipodi:guide
       position="41.949151,62.923727"
       orientation="1,0"
       id="guide4147" /><sodipodi:guide
       position="92.008472,116.8983"
       orientation="1,0"
       id="guide4149" /><sodipodi:guide
       position="62.644066,118.29661"
       orientation="1,0"
       id="guide4146" /><sodipodi:guide
       position="72.711862,108.22881"
       orientation="0,1"
       id="guide4148" /></sodipodi:namedview><metadata
     id="metadata55"><rdf:RDF><cc:Work
         rdf:about=""><dc:format>image/svg+xml</dc:format><dc:type
           rdf:resource="http://purl.org/dc/dcmitype/StillImage" /><dc:title /></cc:Work></rdf:RDF></metadata><defs
     id="defs53" /><path
     d="m 23.865739,20.351102 79.891081,0.19775 20.17052,24.125525 L 63.811283,124.36771 3.6952178,44.476627 Z"
     style="fill:#006cae;fill-opacity:1;fill-rule:evenodd;stroke:#000000;stroke-width:4px;stroke-linecap:butt;stroke-linejoin:miter;stroke-opacity:1"
     id="path6"
     inkscape:connector-curvature="0"
     sodipodi:nodetypes="cccccc" /><path
     style="fill:none;fill-rule:evenodd;stroke:#000000;stroke-width:4;stroke-linecap:butt;stroke-linejoin:miter;stroke-miterlimit:4;stroke-dasharray:none;stroke-opacity:1"
     d="m 42.14896,45.767017 c 8.217412,-0.17093 8.133431,-0.0311 20.42806,-0.02981 9.003466,-0.0013 13.377851,-0.0013 20.512467,-0.03805 C 76.224778,71.013598 65.722472,113.40552 63.451181,121.18323 62.644066,113.05905 50.11658,72.91328 42.14896,45.767017 Z"
     id="path4250"
     inkscape:connector-curvature="0"
     sodipodi:nodetypes="ccccc" /><path
     id="mouth"
     d="m 43.003854,45.829478 c 13.524767,-0.09356 14.709687,-0.09356 19.617331,-0.223204 5.320305,0.129644 6.125499,0.525144 20.490053,0.312345 -7.448017,0.212799 -2.022434,-0.182701 -7.808252,0.0296 -7.794008,-0.212296 -8.63215,-0.212296 -12.364785,0.0041 -4.3604,-0.315247 -5.3918,-0.216372 -9.182306,-0.142785 -5.480717,-0.07359 -2.190448,-0.07359 -10.752041,0.01997 z"
     style="opacity:1;fill:#ffffff;fill-opacity:1;fill-rule:evenodd;stroke:#000000;stroke-width:1;stroke-linecap:butt;stroke-linejoin:miter;stroke-miterlimit:4;stroke-dasharray:none;stroke-opacity:1"
     inkscape:connector-curvature="0"
     sodipodi:nodetypes="ccccccc" /><path
     style="fill:none;fill-rule:evenodd;stroke:#000000;stroke-width:4.07160091px;stroke-linecap:butt;stroke-linejoin:miter;stroke-opacity:1"
     d="m 47.679688,24.626953 c -7.507467,-0.06025 -11.329195,10.921875 -11.289063,18.751953 0.0339,6.614322 3.804262,16.096452 11.011719,16.134766 8.128592,0.04322 10.785591,-10.60494 10.730468,-15.990234 -0.08629,-8.429653 -3.976439,-18.844502 -10.453124,-18.896485 z m 32.24414,0.212891 c -7.497723,-0.06117 -11.31547,11.087826 -11.27539,19.037109 0.03385,6.715018 3.797989,16.341962 10.996093,16.380859 8.118046,0.04387 10.771849,-10.765143 10.716797,-16.232421 -0.08617,-8.557986 -3.969218,-19.132774 -10.4375,-19.185547 z"
     id="rightEye "
     inkscape:connector-curvature="0"
     sodipodi:nodetypes="cccccccccc" /><path
     style="fill:#000000;fill-rule:evenodd;stroke:#000000;stroke-width:1.81055605px;stroke-linecap:butt;stroke-linejoin:miter;stroke-opacity:1"
     d="m 41.984127,43.060272 c 0.0061,0.190767 0.07703,-0.145882 0.20773,-0.150855 0.142577,-0.0049 0.202535,0.378237 0.215218,0.169731 0.0026,-0.201826 -0.08624,0.135498 -0.209066,0.133418 -0.148736,-0.0015 -0.198775,-0.32849 -0.213882,-0.152294 z"
     id="path4183-9-6"
     inkscape:connector-curvature="0"
     sodipodi:nodetypes="ccccc" /><path
     style="fill:#000000;fill-rule:evenodd;stroke:#000000;stroke-width:2.43081737px;stroke-linecap:butt;stroke-linejoin:miter;stroke-opacity:1"
     d="m 82.779677,43.409848 c 0.0061,0.190767 0.07703,-0.145882 0.20773,-0.150855 0.142577,-0.0049 0.202535,0.378237 0.215218,0.169731 0.0026,-0.201826 -0.08624,0.135498 -0.209066,0.133418 -0.148736,-0.0015 -0.198775,-0.32849 -0.213882,-0.152294 z"
     id="path4183-9-6-8"
     inkscape:connector-curvature="0"
     sodipodi:nodetypes="ccccc" /><path
     style="fill:none;fill-rule:evenodd;stroke:#000000;stroke-width:3.98538136px;stroke-linecap:butt;stroke-linejoin:miter;stroke-opacity:1"
     d="m 58.336308,44.300774 c 3.319007,-1.740999 6.123372,-1.599367 10.401754,-0.09887"
     id="path4151"
     inkscape:connector-curvature="0"
     sodipodi:nodetypes="cc" /></svg>